<svg xmlns="http://www.w3.org/2000/svg" version="1.1" xmlns:xlink="http://www.w3.org/1999/xlink" xmlns:svgjs="http://svgjs.dev/svgjs" width="1500" height="1500" viewBox="0 0 1500 1500"><rect width="1500" height="1500" fill="#000000"></rect><g transform="matrix(0.6666666666666666,0,0,0.6666666666666666,249.39393939393932,579.5820889236877)"><svg viewBox="0 0 396 135" data-background-color="#ffffff" preserveAspectRatio="xMidYMid meet" height="511" width="1500" xmlns="http://www.w3.org/2000/svg" xmlns:xlink="http://www.w3.org/1999/xlink"><g id="tight-bounds" transform="matrix(1,0,0,1,0.24000000000003752,0.033516620260769514)"><svg viewBox="0 0 395.5199999999999 134.93292215606203" height="134.93292215606203" width="395.5199999999999"><g><svg viewBox="0 0 660.6472145454262 225.38192549776804" height="134.93292215606203" width="395.5199999999999"><g transform="matrix(1,0,0,1,265.1272145454262,53.85463212508533)"><svg viewBox="0 0 395.52 117.67266124759738" height="117.67266124759738" width="395.52"><g id="textblocktransform"><svg viewBox="0 0 395.52 117.67266124759738" height="117.67266124759738" width="395.52" id="textblock"><g><svg viewBox="0 0 395.52 84.17901236817427" height="84.17901236817427" width="395.52"><g transform="matrix(1,0,0,1,0,0)"><svg width="395.52" viewBox="2.5 -34.806578371482004 167.29 35.606578371482" height="84.17901236817427" data-palette-color="#2ecc40"><path d="M3.8 0.6L3.8 0.6Q3 0.6 2.75-0.15 2.5-0.9 2.5-1.95L2.5-1.95Q2.5-3.7 2.7-5.68 2.9-7.65 3.1-9.55L3.1-9.55 5.85-34.75 10-34.8Q12.05-34.85 12.83-34.52 13.6-34.2 13.85-33.2L13.85-33.2 21.25-6.15 18.65-6.25 30.2-31.4Q30.85-32.8 32.6-33.77 34.35-34.75 36.85-34.75L36.85-34.75Q37.85-34.75 38.38-34.27 38.9-33.8 38.75-32.45L38.75-32.45 35.35 0.4 31.35 0.4Q30.7 0.4 30.35-0.4 30-1.2 30-2.65L30-2.65Q30-4.7 30.13-7.1 30.25-9.5 30.5-11.7L30.5-11.7 32.35-27.5 32.65-27.3 26.1-13.2Q24.1-8.9 22.85-6.38 21.6-3.85 20.83-2.6 20.05-1.35 19.5-0.98 18.95-0.6 18.35-0.6L18.35-0.6Q17.7-0.6 17.28-0.88 16.85-1.15 16.6-2.05L16.6-2.05 9.15-27.55 9.6-27.6 8.2-14.65Q7.75-10.7 7.8-8.35 7.85-6 8.13-4.73 8.4-3.45 8.65-2.75 8.9-2.05 8.9-1.45L8.9-1.45Q8.9-0.9 8.3-0.53 7.7-0.15 6.8 0.1 5.9 0.35 5.08 0.48 4.25 0.6 3.8 0.6ZM49.1 0.8L49.1 0.8Q45.25 0.8 43.15-1.63 41.05-4.05 41.05-8.3L41.05-8.3Q41.05-11.85 42.05-14.8 43.05-17.75 44.85-19.95 46.65-22.15 49.07-23.35 51.5-24.55 54.35-24.55L54.35-24.55Q57.75-24.55 59.55-23.1 61.35-21.65 61.35-18.95L61.35-18.95Q61.35-16.2 59.52-14.15 57.7-12.1 54.27-10.65 50.85-9.2 46.1-8.2L46.1-8.2 45.45-11.2Q48.2-11.55 50.5-12.4 52.8-13.25 54.2-14.68 55.6-16.1 55.6-18.05L55.6-18.05Q55.6-19.4 55.07-20.1 54.55-20.8 53.2-20.8L53.2-20.8Q51.15-20.8 49.72-19.3 48.3-17.8 47.57-15.4 46.85-13 46.85-10.3L46.85-10.3Q46.85-6.65 47.97-5.43 49.1-4.2 51.3-4.2L51.3-4.2Q53.6-4.2 55.32-4.93 57.05-5.65 58.3-6.45L58.3-6.45Q58.7-6.7 59-6.85 59.3-7 59.5-7L59.5-7Q59.75-7 59.9-6.8 60.05-6.6 60.05-6.35L60.05-6.35Q60.05-5.45 59.25-4.25 58.45-3.05 56.97-1.9 55.5-0.75 53.5 0.03 51.5 0.8 49.1 0.8ZM68.4 0.8L68.4 0.8Q65.7 0.8 64.52-1.4 63.35-3.6 63.35-7.85L63.35-7.85Q63.35-11.5 64.37-14.55 65.4-17.6 67.25-19.83 69.1-22.05 71.55-23.28 74-24.5 76.85-24.5L76.85-24.5Q78.6-24.5 80.32-23.93 82.05-23.35 83.3-22.75L83.3-22.75 81.7-17.85Q80.35-18.75 78.87-19.4 77.4-20.05 76.17-20.4 74.95-20.75 74.3-20.75L74.3-20.75Q72.85-20.75 71.65-19.38 70.45-18 69.72-15.58 69-13.15 69-10L69-10Q69-7.1 69.42-5.6 69.85-4.1 70.8-4.1L70.8-4.1Q71.6-4.1 73.27-5.58 74.95-7.05 77.17-10.5 79.4-13.95 81.85-19.85L81.85-19.85 83.3-15.4Q80.65-9.4 78.05-5.85 75.45-2.3 73.02-0.75 70.6 0.8 68.4 0.8ZM85.1 0.5L81.6 0.5Q81.05 0.5 80.65-0.13 80.25-0.75 80.05-1.65 79.85-2.55 79.85-3.3L79.85-3.3Q79.85-4.55 80.27-6.15 80.7-7.75 81.35-10.2L81.35-10.2 82.35-13.95 80.9-15.55 81.45-20.8 82.15-21.65 82.55-34.8 86.45-34.8Q87.2-34.8 87.67-34.15 88.15-33.5 88.37-32.63 88.6-31.75 88.6-30.95L88.6-30.95Q88.6-30.45 88.55-29.83 88.5-29.2 88.35-28.13 88.2-27.05 87.9-25.15L87.9-25.15 86.25-13.65Q85.9-11.25 85.65-8.75 85.4-6.25 85.27-3.9 85.15-1.55 85.1 0.5L85.1 0.5ZM96.59 0.8L93.09 0.8Q92.24 0.8 91.99-0.18 91.74-1.15 91.74-2.2L91.74-2.2Q91.74-4 91.92-5.4 92.09-6.8 92.29-8.5L92.29-8.5 94.09-24.55 97.59-24.55Q98.59-24.55 98.89-23.45 99.19-22.35 99.19-20.95L99.19-20.95Q99.19-20.25 99.09-19.48 98.99-18.7 98.79-17.1L98.79-17.1 97.84-8.95Q97.54-6.35 97.29-4.6 97.04-2.85 96.89-1.6 96.74-0.35 96.59 0.8L96.59 0.8ZM97.49-27.4L97.49-27.4Q96.09-27.4 95.07-28.35 94.04-29.3 94.04-30.85L94.04-30.85Q94.04-32.7 95.24-33.73 96.44-34.75 97.99-34.75L97.99-34.75Q99.44-34.75 100.42-33.9 101.39-33.05 101.39-31.35L101.39-31.35Q101.39-29.65 100.24-28.53 99.09-27.4 97.49-27.4ZM103.89 0.75L103.89 0.75Q102.84 0.75 102.19 0.28 101.54-0.2 101.27-1.05 100.99-1.9 100.99-2.9L100.99-2.9Q100.99-3.8 101.34-4.1 101.69-4.4 102.09-4.4L102.09-4.4Q103.59-4.4 104.99-5.15 106.39-5.9 107.77-7.55 109.14-9.2 110.44-11.85L110.44-11.85 113.14-15.45Q115.14-19.2 116.89-21.15 118.64-23.1 120.14-23.8 121.64-24.5 122.84-24.5L122.84-24.5Q123.79-24.5 124.34-23.9 124.89-23.3 124.89-22.15L124.89-22.15Q124.89-21.3 124.72-20.5 124.54-19.7 124.19-19.2 123.84-18.7 123.39-18.7L123.39-18.7Q122.89-18.7 122.32-18.9 121.74-19.1 121.04-19.1L121.04-19.1Q119.94-19.1 118.42-17.32 116.89-15.55 115.39-12.7L115.39-12.7 112.19-8.6Q110.94-5.6 109.54-3.5 108.14-1.4 106.72-0.33 105.29 0.75 103.89 0.75ZM118.59 0.6L118.59 0.6Q117.59 0.6 116.32-0.95 115.04-2.5 113.14-6.3L113.14-6.3 111.19-10.25 110.84-10.6 109.04-13.75Q107.94-15.75 107.02-17.05 106.09-18.35 105.39-19.2 104.69-20.05 104.14-20.6L104.14-20.6Q103.64-21.15 103.27-21.53 102.89-21.9 102.89-22.4L102.89-22.4Q102.89-22.85 103.77-23.35 104.64-23.85 105.82-24.2 106.99-24.55 107.79-24.55L107.79-24.55Q108.49-24.55 108.99-24.13 109.49-23.7 110.19-22.53 110.89-21.35 112.14-19.05L112.14-19.05 114.04-15.55 114.79-14.3 116.44-11.3Q117.79-8.85 118.82-7.33 119.84-5.8 120.59-4.93 121.34-4.05 121.84-3.5L121.84-3.5Q122.49-2.8 122.99-2.45 123.49-2.1 123.49-1.7L123.49-1.7Q123.49-1.25 122.97-0.83 122.44-0.4 121.64-0.1 120.84 0.2 120.02 0.4 119.19 0.6 118.59 0.6ZM131.34 0.65L131.34 0.65Q129.39 0.65 128.31-0.43 127.24-1.5 127.24-3.65L127.24-3.65Q127.24-4.4 127.26-5.15 127.29-5.9 127.41-6.95 127.54-8 127.74-9.65L127.74-9.65 129.64-24.55 133.14-24.55Q133.99-24.55 134.26-23.58 134.54-22.6 134.54-21.2L134.54-21.2Q134.54-20.15 134.39-18.45 134.24-16.75 133.94-14.7L133.94-14.7 133.34-10.6Q133.14-9.2 133.06-8.1 132.99-7 132.99-6.3L132.99-6.3Q132.99-5.3 133.21-4.78 133.44-4.25 134.09-4.25L134.09-4.25Q134.84-4.25 135.99-5.35 137.14-6.45 138.41-8.25 139.69-10.05 140.79-12.13 141.89-14.2 142.59-16.15 143.29-18.1 143.29-19.5L143.29-19.5Q143.29-20.65 143.01-21.43 142.74-22.2 142.79-22.7L142.79-22.7Q142.79-23.15 143.36-23.5 143.94-23.85 144.74-24.08 145.54-24.3 146.34-24.43 147.14-24.55 147.59-24.55L147.59-24.55Q148.44-24.55 148.91-23.55 149.39-22.55 149.19-20.7L149.19-20.7 146.84 0.5 143.34 0.5Q142.74 0.5 142.39-0.13 142.04-0.75 141.91-1.55 141.79-2.35 141.79-2.75L141.79-2.75Q141.79-3.9 142.11-5.25 142.44-6.6 143.06-8.7 143.69-10.8 144.59-14.1L144.59-14.1 144.59-13.25Q142.64-8.15 140.29-5.1 137.94-2.05 135.64-0.7 133.34 0.65 131.34 0.65ZM159.64 0.8L159.64 0.8Q155.84 0.8 153.66-0.38 151.49-1.55 151.49-3.55L151.49-3.55Q151.49-4.45 151.76-5.23 152.04-6 152.59-6L152.59-6Q152.79-6 153.04-5.9 153.29-5.8 153.99-5.35L153.99-5.35Q154.99-4.7 156.21-4.15 157.44-3.6 158.71-3.28 159.99-2.95 161.09-2.95L161.09-2.95Q162.69-2.95 163.41-3.73 164.14-4.5 164.14-5.8L164.14-5.8Q164.14-6.75 163.56-7.38 162.99-8 161.74-8.8L161.74-8.8 158.64-10.8Q156.69-12.05 155.36-13.48 154.04-14.9 154.04-17.2L154.04-17.2Q154.04-20.45 156.54-22.48 159.04-24.5 163.59-24.5L163.59-24.5Q166.79-24.5 168.29-23.85 169.79-23.2 169.79-21.6L169.79-21.6Q169.79-20.35 169.41-19.5 169.04-18.65 168.39-18.65L168.39-18.65Q168.19-18.65 167.86-18.75 167.54-18.85 167.29-19L167.29-19Q166.89-19.25 166.04-19.7 165.19-20.15 164.14-20.53 163.09-20.9 161.94-20.9L161.94-20.9Q160.79-20.9 160.06-20.23 159.34-19.55 159.34-18.4L159.34-18.4Q159.34-17.45 159.94-16.8 160.54-16.15 161.94-15.45L161.94-15.45 165.19-13.95Q167.24-13 168.51-11.73 169.79-10.45 169.79-7.95L169.79-7.95Q169.79-5 168.36-3.05 166.94-1.1 164.61-0.15 162.29 0.8 159.64 0.8Z" opacity="1" transform="matrix(1,0,0,1,0,0)" fill="#ffffff" class="wordmark-text-0" data-fill-palette-color="primary" id="text-0"></path></svg></g></svg></g><g transform="matrix(1,0,0,1,0,104.05165689200338)"><svg viewBox="0 0 232.209792 13.621004355593994" height="13.621004355593994" width="232.209792"><g transform="matrix(1,0,0,1,0,0)"><svg width="232.209792" viewBox="4.35 -35.64 790.3 46.36" height="13.621004355593994" data-palette-color="#074173"><path d="M4.35-35.11L15.41-35.11Q17.9-35.11 20.08-34.73 22.27-34.35 23.9-33.4 25.54-32.45 26.49-30.81 27.44-29.17 27.44-26.64L27.44-26.64Q27.44-25.12 27.1-23.95 26.76-22.78 26.14-21.88 25.51-20.97 24.61-20.32 23.71-19.68 22.61-19.24L22.61-19.24 22.61-19.19Q23.95-18.85 25.18-18.14 26.42-17.43 27.34-16.33 28.27-15.23 28.82-13.73 29.37-12.23 29.37-10.33L29.37-10.33Q29.37-7.57 28.39-5.62 27.42-3.66 25.7-2.42 23.97-1.17 21.64-0.59 19.31 0 16.6 0L16.6 0 4.35 0 4.35-35.11ZM8.94-20.68L15.33-20.68Q17.09-20.68 18.48-20.97 19.87-21.26 20.84-21.96 21.8-22.66 22.33-23.82 22.85-24.98 22.85-26.68L22.85-26.68Q22.85-28.15 22.24-29.1 21.63-30.05 20.58-30.59L20.58-30.59Q19.53-31.13 18.16-31.34 16.8-31.54 15.33-31.54L15.33-31.54 8.94-31.54 8.94-20.68ZM8.94-3.56L16.6-3.56Q18.31-3.56 19.81-4 21.31-4.44 22.41-5.3 23.51-6.15 24.15-7.42 24.78-8.69 24.78-10.35L24.78-10.35Q24.78-12.01 24.15-13.27 23.51-14.53 22.41-15.38 21.31-16.24 19.81-16.67 18.31-17.11 16.6-17.11L16.6-17.11 8.94-17.11 8.94-3.56ZM40.11-19.51L40.33-19.51Q41.09-21.02 41.95-22.24 42.82-23.46 43.87-24.32L43.87-24.32Q44.82-25.15 45.97-25.55 47.12-25.95 48.58-25.95L48.58-25.95Q49.07-25.95 49.72-25.9 50.36-25.85 50.95-25.73L50.95-25.73Q50.85-24.51 50.72-23.44 50.58-22.36 50.36-21.26L50.36-21.26Q49.14-21.48 48.13-21.58 47.12-21.68 46.21-21.53L46.21-21.53Q45.14-21.34 44.35-20.81 43.55-20.29 42.88-19.42 42.21-18.55 41.57-17.35 40.94-16.14 40.18-14.58L40.18-14.58 40.18 0 35.98 0 35.98-15.65Q35.98-17.19 35.95-18.36 35.91-19.53 35.8-20.59 35.69-21.66 35.47-22.69 35.25-23.73 34.89-25L34.89-25Q35.91-25.27 36.9-25.49 37.89-25.71 38.91-25.9L38.91-25.9Q39.26-24.93 39.46-24.17 39.67-23.41 39.79-22.69 39.91-21.97 39.98-21.23 40.04-20.48 40.11-19.51L40.11-19.51ZM58.56-35.23L58.56-35.23Q59.69-35.23 60.52-34.45L60.52-34.45Q61.32-33.59 61.32-32.45L61.32-32.45Q61.32-31.27 60.52-30.47L60.52-30.47Q59.69-29.64 58.56-29.64L58.56-29.64Q57.39-29.64 56.56-30.47L56.56-30.47Q55.73-31.25 55.73-32.45L55.73-32.45Q55.73-33.62 56.56-34.45L56.56-34.45Q57.39-35.23 58.56-35.23ZM56.42 0L56.42-25.39 60.62-25.39 60.62 0 56.42 0ZM84.2-25.34L84.2-35.16 88.4-35.16 88.4-9.59Q88.4-5.3 88.52-3.96L88.52-3.96Q88.64-2.29 89.08-0.39L89.08-0.39 85.03 0.51Q84.61-0.85 84.42-2.25L84.42-2.25Q84.17-3.96 84.15-4.88L84.15-4.88 83.78-4.88Q82.51-2.25 80.97-1L80.97-1Q79.12 0.59 76.38 0.59L76.38 0.59Q73.99 0.59 72.26-0.45 70.52-1.49 69.56-3.34 68.6-5.2 68.14-7.42 67.69-9.64 67.69-12.33L67.69-12.33Q67.69-15.36 68.32-17.77 68.94-20.19 70.23-22.06 71.53-23.93 73.7-24.94 75.87-25.95 78.8-25.95L78.8-25.95Q81.1-25.95 84.2-25.34L84.2-25.34ZM84.2-10.28L84.2-10.28 84.2-21.63Q81.44-22.36 79.12-22.36L79.12-22.36Q77.14-22.36 75.71-21.64 74.28-20.92 73.48-19.62 72.67-18.31 72.31-16.7 71.94-15.09 71.94-13.09L71.94-13.09Q71.94-11.72 72-10.68 72.06-9.64 72.22-8.44 72.38-7.23 72.72-6.37 73.06-5.52 73.58-4.79 74.09-4.05 74.91-3.67 75.72-3.3 76.8-3.3L76.8-3.3Q79.39-3.3 81.29-5.37L81.29-5.37Q82.66-6.88 84.2-10.28ZM109.02-25.39L111.27-25.39Q112.32-25.39 113.11-25.42 113.91-25.44 114.64-25.52 115.37-25.61 116.12-25.78 116.86-25.95 117.86-26.27L117.86-26.27Q118.18-25.34 118.48-24.51 118.79-23.68 119.11-22.8L119.11-22.8Q118.32-22.51 117.67-22.34 117.01-22.17 116.36-22.06 115.71-21.95 115.07-21.91 114.42-21.88 113.69-21.85L113.69-21.85Q114.37-20.75 114.74-19.38 115.1-18.02 115.1-16.41L115.1-16.41Q115.1-14.06 114.39-12.32 113.69-10.57 112.37-9.35L112.37-9.35Q111.05-8.13 109.21-7.51 107.36-6.88 105.07-6.88L105.07-6.88Q103.9-6.88 102.85-7.02 101.8-7.15 100.84-7.5L100.84-7.5Q100.62-6.91 100.47-6.3 100.31-5.69 100.32-5.14 100.33-4.59 100.53-4.14 100.72-3.69 101.21-3.42L101.21-3.42Q101.45-3.27 101.72-3.19 101.99-3.1 102.37-3.04 102.75-2.98 103.29-2.94 103.82-2.91 104.58-2.91L104.58-2.91Q105.31-2.88 106.3-2.88 107.29-2.88 108.61-2.88L108.61-2.88Q112.42-2.88 114.37-1.28 116.32 0.32 116.32 3.69L116.32 3.69Q116.32 5.05 115.88 6.12 115.44 7.18 114.68 7.96 113.91 8.74 112.86 9.27 111.81 9.79 110.59 10.12 109.37 10.45 108.03 10.58 106.7 10.72 105.36 10.72L105.36 10.72Q104.02 10.72 102.66 10.57 101.31 10.42 100.01 10.21L100.01 10.21Q98.72 9.99 97.59 9.7 96.45 9.42 95.57 9.16L95.57 9.16Q95.91 8.33 96.34 7.5 96.77 6.67 97.26 5.93L97.26 5.93Q98.79 6.37 100.92 6.79 103.04 7.2 105.63 7.2L105.63 7.2Q106.8 7.2 107.94 7.06 109.07 6.91 109.99 6.51 110.9 6.1 111.46 5.43 112.03 4.76 112.03 3.69L112.03 3.69Q112.03 2.56 111.62 1.95 111.22 1.34 110.54 1.05 109.85 0.76 108.93 0.71 108 0.66 106.97 0.66L106.97 0.66 103.77 0.66Q102.33 0.66 101.06 0.44 99.79 0.22 98.84-0.31 97.89-0.83 97.34-1.68 96.79-2.54 96.79-3.78L96.79-3.78Q96.79-4.98 97.23-6.26 97.67-7.54 98.38-8.86L98.38-8.86Q96.77-10.03 95.9-11.96 95.03-13.89 95.03-16.41L95.03-16.41Q95.03-18.7 95.75-20.47 96.47-22.24 97.79-23.49L97.79-23.49Q99.11-24.73 100.94-25.34 102.77-25.95 105.07-25.95L105.07-25.95Q107.22-25.95 109.02-25.39L109.02-25.39ZM105.07-22.58L105.07-22.58Q103.53-22.58 102.43-22.12 101.33-21.66 100.64-20.84 99.94-20.02 99.61-18.88 99.28-17.75 99.28-16.41L99.28-16.41Q99.28-15.04 99.61-13.92 99.94-12.79 100.65-11.98 101.36-11.16 102.44-10.71 103.53-10.25 105.07-10.25L105.07-10.25Q106.61-10.25 107.7-10.71 108.8-11.16 109.5-11.98 110.2-12.79 110.52-13.93 110.85-15.06 110.85-16.41L110.85-16.41Q110.85-17.75 110.52-18.88 110.2-20.02 109.5-20.84 108.8-21.66 107.7-22.12 106.61-22.58 105.07-22.58ZM126.53-35.23L126.53-35.23Q127.65-35.23 128.48-34.45L128.48-34.45Q129.28-33.59 129.28-32.45L129.28-32.45Q129.28-31.27 128.48-30.47L128.48-30.47Q127.65-29.64 126.53-29.64L126.53-29.64Q125.35-29.64 124.52-30.47L124.52-30.47Q123.69-31.25 123.69-32.45L123.69-32.45Q123.69-33.62 124.52-34.45L124.52-34.45Q125.35-35.23 126.53-35.23ZM124.38 0L124.38-25.39 128.58-25.39 128.58 0 124.38 0ZM136.51-24.95L136.51-24.95 140.56-25.85Q141.03-24.39 141.22-23.02L141.22-23.02Q141.32-22.36 141.46-20.41L141.46-20.41 141.98-20.41Q143.32-22.88 145.3-24.34L145.3-24.34Q147.47-25.95 149.89-25.95L149.89-25.95Q153.53-25.95 155.43-24.19L155.43-24.19Q157.07-22.71 157.7-19.63L157.7-19.63Q158.11-17.53 158.11-13.38L158.11-13.38 158.11 0 153.92 0 153.92-14.55Q153.92-18.19 153.21-19.75L153.21-19.75Q152.16-22.07 148.98-22.07L148.98-22.07Q146.74-22.07 144.59-19.92L144.59-19.92Q143.15-18.48 141.51-15.7L141.51-15.7 141.51 0 137.31 0 137.31-15.63Q137.31-18.92 137.14-21.31L137.14-21.31Q137.05-22.8 136.51-24.95ZM177.57-25.39L179.82-25.39Q180.87-25.39 181.66-25.42 182.45-25.44 183.19-25.52 183.92-25.61 184.66-25.78 185.41-25.95 186.41-26.27L186.41-26.27Q186.73-25.34 187.03-24.51 187.34-23.68 187.65-22.8L187.65-22.8Q186.87-22.51 186.21-22.34 185.55-22.17 184.91-22.06 184.26-21.95 183.61-21.91 182.97-21.88 182.23-21.85L182.23-21.85Q182.92-20.75 183.28-19.38 183.65-18.02 183.65-16.41L183.65-16.41Q183.65-14.06 182.94-12.32 182.23-10.57 180.92-9.35L180.92-9.35Q179.6-8.13 177.75-7.51 175.91-6.88 173.62-6.88L173.62-6.88Q172.44-6.88 171.39-7.02 170.34-7.15 169.39-7.5L169.39-7.5Q169.17-6.91 169.01-6.3 168.85-5.69 168.87-5.14 168.88-4.59 169.07-4.14 169.27-3.69 169.76-3.42L169.76-3.42Q170-3.27 170.27-3.19 170.54-3.1 170.92-3.04 171.3-2.98 171.83-2.94 172.37-2.91 173.13-2.91L173.13-2.91Q173.86-2.88 174.85-2.88 175.84-2.88 177.16-2.88L177.16-2.88Q180.96-2.88 182.92-1.28 184.87 0.32 184.87 3.69L184.87 3.69Q184.87 5.05 184.43 6.12 183.99 7.18 183.22 7.96 182.45 8.74 181.4 9.27 180.35 9.79 179.13 10.12 177.91 10.45 176.58 10.58 175.25 10.72 173.91 10.72L173.91 10.72Q172.57 10.72 171.21 10.57 169.86 10.42 168.56 10.21L168.56 10.21Q167.27 9.99 166.13 9.7 165 9.42 164.12 9.16L164.12 9.16Q164.46 8.33 164.89 7.5 165.31 6.67 165.8 5.93L165.8 5.93Q167.34 6.37 169.46 6.79 171.59 7.2 174.18 7.2L174.18 7.2Q175.35 7.2 176.48 7.06 177.62 6.91 178.53 6.51 179.45 6.1 180.01 5.43 180.57 4.76 180.57 3.69L180.57 3.69Q180.57 2.56 180.17 1.95 179.77 1.34 179.08 1.05 178.4 0.76 177.47 0.71 176.55 0.66 175.52 0.66L175.52 0.66 172.32 0.66Q170.88 0.66 169.61 0.44 168.34 0.22 167.39-0.31 166.44-0.83 165.89-1.68 165.34-2.54 165.34-3.78L165.34-3.78Q165.34-4.98 165.78-6.26 166.22-7.54 166.93-8.86L166.93-8.86Q165.31-10.03 164.45-11.96 163.58-13.89 163.58-16.41L163.58-16.41Q163.58-18.7 164.3-20.47 165.02-22.24 166.34-23.49L166.34-23.49Q167.66-24.73 169.49-25.34 171.32-25.95 173.62-25.95L173.62-25.95Q175.76-25.95 177.57-25.39L177.57-25.39ZM173.62-22.58L173.62-22.58Q172.08-22.58 170.98-22.12 169.88-21.66 169.18-20.84 168.49-20.02 168.16-18.88 167.83-17.75 167.83-16.41L167.83-16.41Q167.83-15.04 168.16-13.92 168.49-12.79 169.2-11.98 169.9-11.16 170.99-10.71 172.08-10.25 173.62-10.25L173.62-10.25Q175.15-10.25 176.25-10.71 177.35-11.16 178.05-11.98 178.74-12.79 179.07-13.93 179.4-15.06 179.4-16.41L179.4-16.41Q179.4-17.75 179.07-18.88 178.74-20.02 178.05-20.84 177.35-21.66 176.25-22.12 175.15-22.58 173.62-22.58ZM230.54-21.17L230.54-35.11 235.13-35.11 235.13 0 230.54 0 230.54-17.41 211.7-17.41 211.7 0 207.11 0 207.11-35.11 211.7-35.11 211.7-21.17 230.54-21.17ZM261.45-4.71L262.67-1.42Q259.96-0.34 257.58 0.12 255.2 0.59 253.32 0.59L253.32 0.59Q250.44 0.59 248.29-0.33 246.14-1.25 244.71-2.91 243.29-4.57 242.57-6.87 241.85-9.18 241.85-11.96L241.85-11.96Q241.85-13.67 242.09-15.38 242.33-17.09 242.87-18.64 243.41-20.19 244.27-21.53 245.14-22.88 246.39-23.85 247.63-24.83 249.29-25.39 250.95-25.95 253.08-25.95L253.08-25.95Q258.52-25.95 261.28-22.55 264.04-19.14 264.04-12.79L264.04-12.79 264.04-11.45 246.17-11.45Q246.17-9.4 246.61-7.82 247.05-6.25 247.96-5.16 248.88-4.08 250.28-3.52 251.68-2.95 253.61-2.95L253.61-2.95Q254.69-2.95 255.75-3.11 256.81-3.27 257.81-3.53 258.81-3.78 259.73-4.1 260.64-4.42 261.45-4.71L261.45-4.71ZM246.29-14.82L259.81-14.82Q259.62-18.77 257.92-20.59 256.23-22.41 253.08-22.41L253.08-22.41Q249.93-22.41 248.28-20.59 246.63-18.77 246.29-14.82L246.29-14.82ZM272.07-20.9L272.07-20.9 270.99-24.32Q275.09-25.95 279.59-25.95L279.59-25.95Q283.52-25.95 285.59-24.63L285.59-24.63Q287.96-23.12 287.96-19.48L287.96-19.48 287.96-9.5Q287.96-7.5 288.01-5.4L288.01-5.4Q288.03-4.15 288.25-2.81L288.25-2.81Q288.45-1.54 288.77-0.39L288.77-0.39 284.76 0.49Q284.2-1.15 284.05-3.17L284.05-3.17 283.57-3.22Q280.54 0.59 275.85 0.59L275.85 0.59Q272.43 0.59 270.36-1.31 268.28-3.2 268.28-6.64L268.28-6.64Q268.28-9.2 269.42-10.84 270.55-12.48 272.63-13.6L272.63-13.6Q275.9-15.38 281.78-15.38L281.78-15.38Q282.57-15.38 283.88-15.33L283.88-15.33 283.88-19.04Q283.88-20.8 282.81-21.58 281.74-22.36 279.44-22.36L279.44-22.36Q276.1-22.36 272.07-20.9ZM283.88-7.13L283.88-7.13 283.88-12.26Q283.22-12.3 281.95-12.3L281.95-12.3Q279.81-12.3 278-11.94L278-11.94Q275.31-11.4 273.84-10.24 272.36-9.08 272.36-6.91L272.36-6.91Q272.36-3 276.61-3L276.61-3Q278.81-3 280.71-4.17L280.71-4.17Q282.27-5.15 283.88-7.13ZM299.51-35.11L299.51-9.86Q299.51-7.86 299.55-6.51 299.6-5.15 299.68-4.13L299.68-4.13Q299.75-3.1 299.91-2.27 300.07-1.44 300.31-0.44L300.31-0.44Q299.29-0.17 298.26 0.06 297.24 0.29 296.21 0.46L296.21 0.46Q295.72-1.12 295.51-2.44 295.31-3.76 295.31-5.03L295.31-5.03 295.31-35.11 299.51-35.11ZM309.83-25.39L309.83-31.2 314.03-31.2 314.03-25.39 322.57-25.39 322.57-21.85 314.03-21.85 314.03-7.28Q314.03-5.81 314.12-5.04 314.2-4.27 314.54-3.83L314.54-3.83Q315.18-2.95 317.11-2.95L317.11-2.95Q318.18-2.95 319.18-3.17L319.18-3.17Q320.21-3.39 321.06-3.66L321.06-3.66Q321.74-2.17 322.31-0.39L322.31-0.39Q319.43 0.59 316.5 0.59L316.5 0.59Q314.37 0.59 313.09 0.11 311.81-0.37 311.08-1.44L311.08-1.44Q310.32-2.56 310.07-4.13 309.83-5.69 309.83-8.45L309.83-8.45 309.83-21.85 306.17-21.85 306.17-25.39 309.83-25.39ZM328.77 0L328.77-35.16 332.97-35.16 332.97-19.85Q334.61-22.63 336.68-24.19L336.68-24.19Q339.05-25.95 341.4-25.95L341.4-25.95Q344.91-25.95 346.86-24.19L346.86-24.19Q348.55-22.68 349.18-19.63L349.18-19.63Q349.67-17.31 349.67-13.38L349.67-13.38 349.67 0 345.47 0 345.47-14.55Q345.47-16.04 345.4-17 345.33-17.97 345.05-19.03 344.76-20.09 344.24-20.69 343.72-21.29 342.78-21.68 341.84-22.07 340.49-22.07L340.49-22.07Q338.17-22.07 336.02-19.87L336.02-19.87Q334.66-18.48 332.97-15.63L332.97-15.63 332.97 0 328.77 0ZM373.6-4.32L374.65-0.9Q372.74-0.24 370.58 0.17 368.42 0.59 366.49 0.59L366.49 0.59Q363.56 0.59 361.41-0.27 359.26-1.12 357.86-2.76 356.46-4.39 355.77-6.77 355.09-9.16 355.09-12.21L355.09-12.21Q355.09-15.53 355.93-18.09 356.77-20.65 358.37-22.4 359.97-24.15 362.28-25.05 364.59-25.95 367.52-25.95L367.52-25.95Q369.01-25.95 370.54-25.65 372.08-25.34 373.67-24.88L373.67-24.88 372.62-21.46Q371.35-21.88 370.26-22.12 369.18-22.36 367.98-22.36L367.98-22.36Q363.83-22.36 361.58-19.96 359.34-17.55 359.34-12.7L359.34-12.7Q359.34-10.42 359.67-8.63 360-6.84 360.84-5.58 361.68-4.32 363.13-3.66 364.59-3 366.83-3L366.83-3Q368.3-3 369.99-3.38 371.69-3.76 373.6-4.32L373.6-4.32ZM382.14-20.9L382.14-20.9 381.06-24.32Q385.17-25.95 389.66-25.95L389.66-25.95Q393.59-25.95 395.66-24.63L395.66-24.63Q398.03-23.12 398.03-19.48L398.03-19.48 398.03-9.5Q398.03-7.5 398.08-5.4L398.08-5.4Q398.1-4.15 398.32-2.81L398.32-2.81Q398.52-1.54 398.84-0.39L398.84-0.39 394.83 0.49Q394.27-1.15 394.13-3.17L394.13-3.17 393.64-3.22Q390.61 0.59 385.92 0.59L385.92 0.59Q382.5 0.59 380.43-1.31 378.35-3.2 378.35-6.64L378.35-6.64Q378.35-9.2 379.49-10.84 380.62-12.48 382.7-13.6L382.7-13.6Q385.97-15.38 391.85-15.38L391.85-15.38Q392.64-15.38 393.95-15.33L393.95-15.33 393.95-19.04Q393.95-20.8 392.88-21.58 391.81-22.36 389.51-22.36L389.51-22.36Q386.17-22.36 382.14-20.9ZM393.95-7.13L393.95-7.13 393.95-12.26Q393.29-12.3 392.03-12.3L392.03-12.3Q389.88-12.3 388.07-11.94L388.07-11.94Q385.38-11.4 383.91-10.24 382.43-9.08 382.43-6.91L382.43-6.91Q382.43-3 386.68-3L386.68-3Q388.88-3 390.78-4.17L390.78-4.17Q392.34-5.15 393.95-7.13ZM410.41-19.51L410.63-19.51Q411.38-21.02 412.25-22.24 413.12-23.46 414.17-24.32L414.17-24.32Q415.12-25.15 416.27-25.55 417.41-25.95 418.88-25.95L418.88-25.95Q419.37-25.95 420.01-25.9 420.66-25.85 421.25-25.73L421.25-25.73Q421.15-24.51 421.01-23.44 420.88-22.36 420.66-21.26L420.66-21.26Q419.44-21.48 418.43-21.58 417.41-21.68 416.51-21.53L416.51-21.53Q415.44-21.34 414.64-20.81 413.85-20.29 413.18-19.42 412.51-18.55 411.87-17.35 411.24-16.14 410.48-14.58L410.48-14.58 410.48 0 406.28 0 406.28-15.65Q406.28-17.19 406.24-18.36 406.21-19.53 406.1-20.59 405.99-21.66 405.77-22.69 405.55-23.73 405.18-25L405.18-25Q406.21-25.27 407.2-25.49 408.19-25.71 409.21-25.9L409.21-25.9Q409.55-24.93 409.76-24.17 409.97-23.41 410.09-22.69 410.21-21.97 410.27-21.23 410.33-20.48 410.41-19.51L410.41-19.51ZM444.17-4.71L445.39-1.42Q442.68-0.34 440.3 0.12 437.92 0.59 436.04 0.59L436.04 0.59Q433.16 0.59 431.01-0.33 428.86-1.25 427.43-2.91 426-4.57 425.28-6.87 424.56-9.18 424.56-11.96L424.56-11.96Q424.56-13.67 424.81-15.38 425.05-17.09 425.59-18.64 426.13-20.19 426.99-21.53 427.86-22.88 429.11-23.85 430.35-24.83 432.01-25.39 433.67-25.95 435.79-25.95L435.79-25.95Q441.24-25.95 444-22.55 446.76-19.14 446.76-12.79L446.76-12.79 446.76-11.45 428.89-11.45Q428.89-9.4 429.33-7.82 429.76-6.25 430.68-5.16 431.6-4.08 433-3.52 434.4-2.95 436.33-2.95L436.33-2.95Q437.41-2.95 438.47-3.11 439.53-3.27 440.53-3.53 441.53-3.78 442.45-4.1 443.36-4.42 444.17-4.71L444.17-4.71ZM429.01-14.82L442.53-14.82Q442.34-18.77 440.64-20.59 438.94-22.41 435.79-22.41L435.79-22.41Q432.65-22.41 431-20.59 429.35-18.77 429.01-14.82L429.01-14.82ZM494.04-18.04L494.04-1.88Q491.14-0.68 488.02-0.05 484.91 0.59 481.98 0.59L481.98 0.59Q478.17 0.59 475.23-0.49 472.29-1.56 470.29-3.76 468.28-5.96 467.25-9.29 466.21-12.62 466.21-17.14L466.21-17.14Q466.21-22.05 467.27-25.56 468.33-29.08 470.36-31.31 472.39-33.54 475.35-34.59 478.32-35.64 482.13-35.64L482.13-35.64Q484.5-35.64 487.11-35.17 489.72-34.69 492.48-33.81L492.48-33.81 491.19-30.15Q488.72-30.98 486.56-31.4 484.4-31.81 482.2-31.81L482.2-31.81Q479.37-31.81 477.24-30.98 475.12-30.15 473.72-28.42 472.31-26.68 471.62-24 470.92-21.31 470.92-17.6L470.92-17.6Q470.92-13.94 471.57-11.23 472.22-8.52 473.56-6.75 474.9-4.98 476.98-4.11 479.05-3.25 481.88-3.25L481.88-3.25Q483.89-3.25 485.91-3.66 487.94-4.08 489.62-4.64L489.62-4.64 489.62-14.36 483.74-14.36 483.74-18.04 494.04-18.04ZM503.1-20.9L503.1-20.9 502.02-24.32Q506.12-25.95 510.62-25.95L510.62-25.95Q514.55-25.95 516.62-24.63L516.62-24.63Q518.99-23.12 518.99-19.48L518.99-19.48 518.99-9.5Q518.99-7.5 519.04-5.4L519.04-5.4Q519.06-4.15 519.28-2.81L519.28-2.81Q519.48-1.54 519.8-0.39L519.8-0.39 515.79 0.49Q515.23-1.15 515.08-3.17L515.08-3.17 514.6-3.22Q511.57 0.59 506.88 0.59L506.88 0.59Q503.46 0.59 501.39-1.31 499.31-3.2 499.31-6.64L499.31-6.64Q499.31-9.2 500.45-10.84 501.58-12.48 503.66-13.6L503.66-13.6Q506.93-15.38 512.81-15.38L512.81-15.38Q513.59-15.38 514.91-15.33L514.91-15.33 514.91-19.04Q514.91-20.8 513.84-21.58 512.76-22.36 510.47-22.36L510.47-22.36Q507.13-22.36 503.1-20.9ZM514.91-7.13L514.91-7.13 514.91-12.26Q514.25-12.3 512.98-12.3L512.98-12.3Q510.84-12.3 509.03-11.94L509.03-11.94Q506.34-11.4 504.87-10.24 503.39-9.08 503.39-6.91L503.39-6.91Q503.39-3 507.64-3L507.64-3Q509.84-3 511.74-4.17L511.74-4.17Q513.3-5.15 514.91-7.13ZM531.17-0.02L531.17 9.77 526.97 9.77 526.97-15.82Q526.97-20.07 526.85-21.41L526.85-21.41Q526.73-23.07 526.29-24.98L526.29-24.98 530.34-25.88Q530.76-24.51 530.95-23.12L530.95-23.12Q531.19-21.41 531.22-20.48L531.22-20.48 531.59-20.48Q532.86-23.12 534.39-24.37L534.39-24.37Q536.25-25.95 538.98-25.95L538.98-25.95Q541.38-25.95 543.11-24.91 544.84-23.88 545.81-22.02 546.77-20.17 547.22-17.94 547.67-15.72 547.67-13.04L547.67-13.04Q547.67-10.01 547.05-7.59 546.43-5.18 545.14-3.31 543.84-1.44 541.67-0.43 539.5 0.59 536.57 0.59L536.57 0.59Q534.27 0.59 531.17-0.02L531.17-0.02ZM531.17-15.09L531.17-15.09 531.17-3.74Q533.93-3 536.25-3L536.25-3Q538.23-3 539.65-3.72 541.08-4.44 541.89-5.75 542.69-7.06 543.06-8.67 543.43-10.28 543.43-12.28L543.43-12.28Q543.43-13.65 543.37-14.69 543.3-15.72 543.15-16.93 542.99-18.14 542.65-18.99 542.3-19.85 541.79-20.58 541.28-21.31 540.46-21.69 539.64-22.07 538.57-22.07L538.57-22.07Q535.98-22.07 534.08-20L534.08-20Q532.71-18.48 531.17-15.09ZM561.76-25.95L561.76-25.95Q563.76-25.95 565.78-25.54 567.79-25.12 569.52-24.39L569.52-24.39Q569.18-23.61 568.81-22.85 568.45-22.09 568.01-21.36L568.01-21.36Q567.4-21.61 566.65-21.85 565.91-22.09 565.09-22.27 564.27-22.44 563.41-22.55 562.54-22.66 561.71-22.66L561.71-22.66Q560.81-22.66 559.96-22.47 559.12-22.29 558.48-21.88 557.83-21.46 557.44-20.79 557.05-20.12 557.05-19.12L557.05-19.12Q557.05-18.09 557.49-17.4 557.93-16.7 558.68-16.24 559.44-15.77 560.45-15.45 561.47-15.14 562.61-14.87L562.61-14.87Q564.4-14.43 565.93-13.88 567.47-13.33 568.59-12.45 569.72-11.57 570.35-10.28 570.99-8.98 570.99-7.08L570.99-7.08Q570.99-5.08 570.19-3.64 569.4-2.2 568.05-1.26 566.69-0.32 564.88 0.13 563.08 0.59 561.03 0.59L561.03 0.59Q559.95 0.59 558.82 0.45 557.68 0.32 556.57 0.06 555.46-0.2 554.39-0.56 553.31-0.93 552.36-1.37L552.36-1.37Q552.7-2.15 553.08-2.89 553.46-3.64 553.87-4.37L553.87-4.37Q554.68-4.03 555.58-3.72 556.49-3.42 557.44-3.2 558.39-2.98 559.32-2.84 560.25-2.71 561.1-2.71L561.1-2.71Q562.17-2.71 563.19-2.95 564.2-3.2 564.99-3.72 565.79-4.25 566.26-5.08 566.74-5.91 566.74-7.08L566.74-7.08Q566.74-8.18 566.29-8.89 565.84-9.59 565.08-10.07 564.32-10.55 563.31-10.85 562.3-11.16 561.17-11.43L561.17-11.43Q559.46-11.84 557.94-12.38 556.41-12.92 555.28-13.78 554.14-14.65 553.47-15.93 552.8-17.21 552.8-19.12L552.8-19.12Q552.8-20.9 553.53-22.19 554.26-23.49 555.5-24.32 556.73-25.15 558.35-25.55 559.98-25.95 561.76-25.95ZM589.54-31.35L589.54-35.11 615.83-35.11 615.83-31.35 605.04-31.35 605.04 0 600.45 0 600.45-31.35 589.54-31.35ZM631.33-25.95L631.33-25.95Q632.53-25.95 633.82-25.77 635.12-25.59 636.36-25.07L636.36-25.07Q637.61-24.54 638.72-23.62 639.83-22.71 640.68-21.24L640.68-21.24Q641.54-19.75 642.02-17.66 642.51-15.58 642.51-12.7L642.51-12.7Q642.51-9.81 642.02-7.73 641.54-5.64 640.68-4.17L640.68-4.17Q639.83-2.69 638.72-1.76 637.61-0.83 636.36-0.32L636.36-0.32Q635.12 0.22 633.82 0.4 632.53 0.59 631.33 0.59L631.33 0.59Q630.16 0.59 628.88 0.4 627.6 0.22 626.35-0.32L626.35-0.32Q625.11-0.83 624.01-1.76 622.91-2.69 622.05-4.17L622.05-4.17Q621.2-5.64 620.71-7.73 620.22-9.81 620.22-12.7L620.22-12.7Q620.22-15.58 620.71-17.66 621.2-19.75 622.05-21.24L622.05-21.24Q622.91-22.71 624.01-23.62 625.11-24.54 626.35-25.07L626.35-25.07Q627.6-25.59 628.87-25.77 630.14-25.95 631.33-25.95ZM631.33-22.51L631.33-22.51Q629.94-22.51 628.71-22.07 627.47-21.63 626.55-20.53L626.55-20.53Q625.59-19.41 625.03-17.53 624.47-15.65 624.47-12.7L624.47-12.7Q624.47-9.77 625.03-7.87 625.59-5.98 626.55-4.88L626.55-4.88Q627.47-3.76 628.71-3.33 629.94-2.91 631.33-2.91L631.33-2.91Q632.75-2.91 634-3.33 635.26-3.76 636.21-4.88L636.21-4.88Q637.17-5.98 637.72-7.87 638.27-9.77 638.27-12.7L638.27-12.7Q638.27-15.65 637.72-17.53 637.17-19.41 636.21-20.53L636.21-20.53Q635.26-21.63 634-22.07 632.75-22.51 631.33-22.51ZM661.31-25.39L663.56-25.39Q664.61-25.39 665.4-25.42 666.19-25.44 666.92-25.52 667.66-25.61 668.4-25.78 669.15-25.95 670.15-26.27L670.15-26.27Q670.46-25.34 670.77-24.51 671.08-23.68 671.39-22.8L671.39-22.8Q670.61-22.51 669.95-22.34 669.29-22.17 668.65-22.06 668-21.95 667.35-21.91 666.7-21.88 665.97-21.85L665.97-21.85Q666.66-20.75 667.02-19.38 667.39-18.02 667.39-16.41L667.39-16.41Q667.39-14.06 666.68-12.32 665.97-10.57 664.65-9.35L664.65-9.35Q663.34-8.13 661.49-7.51 659.65-6.88 657.35-6.88L657.35-6.88Q656.18-6.88 655.13-7.02 654.08-7.15 653.13-7.5L653.13-7.5Q652.91-6.91 652.75-6.3 652.59-5.69 652.61-5.14 652.62-4.59 652.81-4.14 653.01-3.69 653.5-3.42L653.5-3.42Q653.74-3.27 654.01-3.19 654.28-3.1 654.66-3.04 655.04-2.98 655.57-2.94 656.11-2.91 656.87-2.91L656.87-2.91Q657.6-2.88 658.59-2.88 659.58-2.88 660.89-2.88L660.89-2.88Q664.7-2.88 666.66-1.28 668.61 0.32 668.61 3.69L668.61 3.69Q668.61 5.05 668.17 6.12 667.73 7.18 666.96 7.96 666.19 8.74 665.14 9.27 664.09 9.79 662.87 10.12 661.65 10.45 660.32 10.58 658.99 10.72 657.65 10.72L657.65 10.72Q656.3 10.72 654.95 10.57 653.59 10.42 652.3 10.21L652.3 10.21Q651.01 9.99 649.87 9.7 648.74 9.42 647.86 9.16L647.86 9.16Q648.2 8.33 648.63 7.5 649.05 6.67 649.54 5.93L649.54 5.93Q651.08 6.37 653.2 6.79 655.33 7.2 657.92 7.2L657.92 7.2Q659.09 7.2 660.22 7.06 661.36 6.91 662.27 6.51 663.19 6.1 663.75 5.43 664.31 4.76 664.31 3.69L664.31 3.69Q664.31 2.56 663.91 1.95 663.51 1.34 662.82 1.05 662.14 0.76 661.21 0.71 660.28 0.66 659.26 0.66L659.26 0.66 656.06 0.66Q654.62 0.66 653.35 0.44 652.08 0.22 651.13-0.31 650.18-0.83 649.63-1.68 649.08-2.54 649.08-3.78L649.08-3.78Q649.08-4.98 649.52-6.26 649.96-7.54 650.66-8.86L650.66-8.86Q649.05-10.03 648.19-11.96 647.32-13.89 647.32-16.41L647.32-16.41Q647.32-18.7 648.04-20.47 648.76-22.24 650.08-23.49L650.08-23.49Q651.4-24.73 653.23-25.34 655.06-25.95 657.35-25.95L657.35-25.95Q659.5-25.95 661.31-25.39L661.31-25.39ZM657.35-22.58L657.35-22.58Q655.82-22.58 654.72-22.12 653.62-21.66 652.92-20.84 652.23-20.02 651.9-18.88 651.57-17.75 651.57-16.41L651.57-16.41Q651.57-15.04 651.9-13.92 652.23-12.79 652.94-11.98 653.64-11.16 654.73-10.71 655.82-10.25 657.35-10.25L657.35-10.25Q658.89-10.25 659.99-10.71 661.09-11.16 661.79-11.98 662.48-12.79 662.81-13.93 663.14-15.06 663.14-16.41L663.14-16.41Q663.14-17.75 662.81-18.88 662.48-20.02 661.79-20.84 661.09-21.66 659.99-22.12 658.89-22.58 657.35-22.58ZM694.12-4.71L695.34-1.42Q692.63-0.34 690.25 0.12 687.87 0.59 685.99 0.59L685.99 0.59Q683.11 0.59 680.96-0.33 678.81-1.25 677.38-2.91 675.96-4.57 675.24-6.87 674.51-9.18 674.51-11.96L674.51-11.96Q674.51-13.67 674.76-15.38 675-17.09 675.54-18.64 676.08-20.19 676.94-21.53 677.81-22.88 679.06-23.85 680.3-24.83 681.96-25.39 683.62-25.95 685.75-25.95L685.75-25.95Q691.19-25.95 693.95-22.55 696.71-19.14 696.71-12.79L696.71-12.79 696.71-11.45 678.84-11.45Q678.84-9.4 679.28-7.82 679.72-6.25 680.63-5.16 681.55-4.08 682.95-3.52 684.35-2.95 686.28-2.95L686.28-2.95Q687.36-2.95 688.42-3.11 689.48-3.27 690.48-3.53 691.48-3.78 692.4-4.1 693.31-4.42 694.12-4.71L694.12-4.71ZM678.96-14.82L692.48-14.82Q692.29-18.77 690.59-20.59 688.89-22.41 685.75-22.41L685.75-22.41Q682.6-22.41 680.95-20.59 679.3-18.77 678.96-14.82L678.96-14.82ZM705.49-25.39L705.49-31.2 709.69-31.2 709.69-25.39 718.24-25.39 718.24-21.85 709.69-21.85 709.69-7.28Q709.69-5.81 709.78-5.04 709.86-4.27 710.21-3.83L710.21-3.83Q710.84-2.95 712.77-2.95L712.77-2.95Q713.84-2.95 714.84-3.17L714.84-3.17Q715.87-3.39 716.72-3.66L716.72-3.66Q717.41-2.17 717.97-0.39L717.97-0.39Q715.09 0.59 712.16 0.59L712.16 0.59Q710.03 0.59 708.75 0.11 707.47-0.37 706.74-1.44L706.74-1.44Q705.98-2.56 705.74-4.13 705.49-5.69 705.49-8.45L705.49-8.45 705.49-21.85 701.83-21.85 701.83-25.39 705.49-25.39ZM724.44 0L724.44-35.16 728.64-35.16 728.64-19.85Q730.27-22.63 732.35-24.19L732.35-24.19Q734.72-25.95 737.06-25.95L737.06-25.95Q740.57-25.95 742.53-24.19L742.53-24.19Q744.21-22.68 744.85-19.63L744.85-19.63Q745.34-17.31 745.34-13.38L745.34-13.38 745.34 0 741.14 0 741.14-14.55Q741.14-16.04 741.06-17 740.99-17.97 740.71-19.03 740.43-20.09 739.9-20.69 739.38-21.29 738.44-21.68 737.5-22.07 736.16-22.07L736.16-22.07Q733.84-22.07 731.69-19.87L731.69-19.87Q730.32-18.48 728.64-15.63L728.64-15.63 728.64 0 724.44 0ZM770.33-4.71L771.55-1.42Q768.84-0.34 766.46 0.12 764.08 0.59 762.2 0.59L762.2 0.59Q759.32 0.59 757.17-0.33 755.03-1.25 753.6-2.91 752.17-4.57 751.45-6.87 750.73-9.18 750.73-11.96L750.73-11.96Q750.73-13.67 750.97-15.38 751.22-17.09 751.75-18.64 752.29-20.19 753.16-21.53 754.02-22.88 755.27-23.85 756.51-24.83 758.17-25.39 759.83-25.95 761.96-25.95L761.96-25.95Q767.4-25.95 770.16-22.55 772.92-19.14 772.92-12.79L772.92-12.79 772.92-11.45 755.05-11.45Q755.05-9.4 755.49-7.82 755.93-6.25 756.84-5.16 757.76-4.08 759.16-3.52 760.57-2.95 762.5-2.95L762.5-2.95Q763.57-2.95 764.63-3.11 765.69-3.27 766.69-3.53 767.7-3.78 768.61-4.1 769.53-4.42 770.33-4.71L770.33-4.71ZM755.17-14.82L768.7-14.82Q768.5-18.77 766.8-20.59 765.11-22.41 761.96-22.41L761.96-22.41Q758.81-22.41 757.16-20.59 755.51-18.77 755.17-14.82L755.17-14.82ZM783.81-19.51L784.03-19.51Q784.78-21.02 785.65-22.24 786.52-23.46 787.57-24.32L787.57-24.32Q788.52-25.15 789.67-25.55 790.81-25.95 792.28-25.95L792.28-25.95Q792.77-25.95 793.41-25.9 794.06-25.85 794.65-25.73L794.65-25.73Q794.55-24.51 794.41-23.44 794.28-22.36 794.06-21.26L794.06-21.26Q792.84-21.48 791.83-21.58 790.81-21.68 789.91-21.53L789.91-21.53Q788.84-21.34 788.04-20.81 787.25-20.29 786.58-19.42 785.91-18.55 785.27-17.35 784.64-16.14 783.88-14.58L783.88-14.58 783.88 0 779.68 0 779.68-15.65Q779.68-17.19 779.64-18.36 779.61-19.53 779.5-20.59 779.39-21.66 779.17-22.69 778.95-23.73 778.58-25L778.58-25Q779.61-25.27 780.6-25.49 781.59-25.71 782.61-25.9L782.61-25.9Q782.95-24.93 783.16-24.17 783.37-23.41 783.49-22.69 783.61-21.97 783.67-21.23 783.73-20.48 783.81-19.51L783.81-19.51Z" opacity="1" transform="matrix(1,0,0,1,0,0)" fill="#ffffff" class="slogan-text-1" data-fill-palette-color="secondary" id="text-1"></path></svg></g></svg></g></svg></g></svg></g><g><svg viewBox="0 0 225.38192549776804 225.38192549776804" height="225.38192549776804" width="225.38192549776804"><g><svg></svg></g><g id="icon-0"><svg viewBox="0 0 225.38192549776804 225.38192549776804" height="225.38192549776804" width="225.38192549776804"><g><path d="M0 112.691c0-62.237 50.453-112.691 112.691-112.691 62.237 0 112.691 50.453 112.691 112.691 0 62.237-50.453 112.691-112.691 112.691-62.237 0-112.691-50.453-112.691-112.691zM112.691 217.791c58.045 0 105.1-47.055 105.1-105.1 0-58.045-47.055-105.1-105.1-105.1-58.045 0-105.1 47.055-105.1 105.1 0 58.045 47.055 105.1 105.1 105.1z" data-fill-palette-color="accent" fill="#ffffff" stroke="transparent"></path></g><g transform="matrix(1,0,0,1,49.26612821897213,58.18524557474099)"><svg viewBox="0 0 126.84966905982378 109.01143434828606" height="109.01143434828606" width="126.84966905982378"><g><svg xmlns="http://www.w3.org/2000/svg" xmlns:xlink="http://www.w3.org/1999/xlink" version="1.1" x="0" y="0" viewBox="0 18 128 110" style="enable-background:new 0 0 128 128;" xml:space="preserve" height="109.01143434828606" width="126.84966905982378" class="icon-dxe-0" data-fill-palette-color="accent" id="dxe-0"><path d="M40 64H2C0.9 64 0 64.9 0 66S0.9 68 2 68H40C41.1 68 42 67.1 42 66S41.1 64 40 64" fill="#ffffff" data-fill-palette-color="accent"></path><path d="M40 76H2C0.9 76 0 76.9 0 78S0.9 80 2 80H40C41.1 80 42 79.1 42 78S41.1 76 40 76" fill="#ffffff" data-fill-palette-color="accent"></path><path d="M32 84C32 82.9 31.1 82 30 82S28 82.9 28 84V85L24.2 89.9 20 84C20 82.9 19.1 82 18 82S16 82.9 16 84V126H14V128H34V126H32zM27.6 97.5L24.3 101.9 21 97.5 24.3 93.1zM27.6 109.5L24.3 113.9 21 109.5 24.3 105.1zM20 87.6L23 91.5 20 95.4zM20 99.6L23 103.5 20 107.4zM20 111.6L23 115.5 20 119.4zM28 126H20V123L24.2 117.1 28 122zM28 118.8L25.5 115.5 28 112.2zM28 106.8L25.5 103.5 28 100.2zM28 94.8L25.5 91.5 28 88.2z" fill="#ffffff" data-fill-palette-color="accent"></path><path d="M88 68H126C127.1 68 128 67.1 128 66S127.1 64 126 64H88C86.9 64 86 64.9 86 66S86.9 68 88 68" fill="#ffffff" data-fill-palette-color="accent"></path><path d="M126 76H88C86.9 76 86 76.9 86 78S86.9 80 88 80H126C127.1 80 128 79.1 128 78S127.1 76 126 76" fill="#ffffff" data-fill-palette-color="accent"></path><path d="M78 20C78 18.9 77.1 18 76 18S74 18.9 74 20V22H70V20C70 18.9 69.1 18 68 18S66 18.9 66 20V22H62V20C62 18.9 61.1 18 60 18S58 18.9 58 20V22H54V20C54 18.9 53.1 18 52 18S50 18.9 50 20V54H44V128H48V58H80V128H84V54H78zM58 54H54V50H58zM58 46H54V42H58zM58 38H54V34H58zM58 30H54V26H58zM66 54H62V50H66zM66 46H62V42H66zM66 38H62V34H66zM66 30H62V26H66zM74 54H70V50H74zM74 46H70V42H74zM74 38H70V34H74zM74 30H70V26H74z" fill="#ffffff" data-fill-palette-color="accent"></path><path d="M18 58C15.8 58 14 59.8 14 62H22C22 59.8 20.2 58 18 58" fill="#ffffff" data-fill-palette-color="accent"></path><path d="M30 58C27.8 58 26 59.8 26 62H34C34 59.8 32.2 58 30 58" fill="#ffffff" data-fill-palette-color="accent"></path><path d="M98 58C95.8 58 94 59.8 94 62H102C102 59.8 100.2 58 98 58" fill="#ffffff" data-fill-palette-color="accent"></path><path d="M110 58C107.8 58 106 59.8 106 62H114C114 59.8 112.2 58 110 58" fill="#ffffff" data-fill-palette-color="accent"></path><path d="M111 84C111 82.9 110.1 82 109 82S107 82.9 107 84V85L103.2 89.9 99 84C99 82.9 98.1 82 97 82S95 82.9 95 84V126H93V128H113V126H111zM106.6 97.5L103.3 101.9 100 97.5 103.3 93.1zM106.6 109.5L103.3 113.9 100 109.5 103.3 105.1zM99 87.6L102 91.5 99 95.4zM99 99.6L102 103.5 99 107.4zM99 111.6L102 115.5 99 119.4zM107 126H99V123L103.2 117.1 107 122zM107 118.8L104.5 115.5 107 112.2zM107 106.8L104.5 103.5 107 100.2zM107 94.8L104.5 91.5 107 88.2z" fill="#ffffff" data-fill-palette-color="accent"></path></svg></g></svg></g></svg></g></svg></g></svg></g><defs></defs></svg><rect width="395.5199999999999" height="134.93292215606203" fill="none" stroke="none" visibility="hidden"></rect></g></svg></g></svg>